HIERARCHY
ROOT root
{
	OFFSET	0	13.1	24.9
	CHANNELS 6  Xposition Yposition Zposition Xrotation Yrotation Zrotation
	JOINT spine_1
	{
		OFFSET	0	9.99999	0
		CHANNELS 3  Xrotation Yrotation Zrotation
		JOINT spine_2
		{
			OFFSET	0	112	-10
			CHANNELS 3  Xrotation Yrotation Zrotation
			JOINT spine_3
			{
				OFFSET	0	206.5	19.3
				CHANNELS 3  Xrotation Yrotation Zrotation
				JOINT spine_4
				{
					OFFSET	0	110.4	14.6
					CHANNELS 3  Xrotation Yrotation Zrotation
					JOINT neck_1
					{
						OFFSET	0	71.8	-50.3
						CHANNELS 3  Xrotation Yrotation Zrotation
						JOINT neck_2
						{
							OFFSET	0	86.2	-25.8
							CHANNELS 3  Xrotation Yrotation Zrotation
							JOINT head_ee
							{
								OFFSET	0	179.8	-8.7
								CHANNELS 3  Xrotation Yrotation Zrotation
								End Site
								{
									OFFSET	1	0	0
								}
							}
						}
					}
					JOINT left_clavicle
					{
						OFFSET	-43.2	22.4	-70.8
						CHANNELS 3  Xrotation Yrotation Zrotation
						JOINT left_shoulder
						{
							OFFSET	-93.9	-5.79999	48.7
							CHANNELS 3  Xrotation Yrotation Zrotation
							JOINT left_elbow
							{
								OFFSET	-291.4	-30.8	15.2
								CHANNELS 3  Xrotation Yrotation Zrotation
								JOINT left_lowarm_twist
								{
									OFFSET	-110.7	-3.89999	13.6
									CHANNELS 3  Xrotation Yrotation Zrotation
									JOINT left_hand
									{
										OFFSET	-110.7	-3.89999	13.6
										CHANNELS 3  Xrotation Yrotation Zrotation
										JOINT left_ee
										{
											OFFSET	-80.8	-5.10001	12.1
											CHANNELS 3  Xrotation Yrotation Zrotation
											End Site
											{
												OFFSET	1	0	0
											}
										}
									}
								}
							}
						}
					}
					JOINT right_clavicle
					{
						OFFSET	43.2	22.4	-70.8
						CHANNELS 3  Xrotation Yrotation Zrotation
						JOINT right_shoulder
						{
							OFFSET	93.9	-5.79999	48.7
							CHANNELS 3  Xrotation Yrotation Zrotation
							JOINT right_elbow
							{
								OFFSET	291.4	-30.8	15.2
								CHANNELS 3  Xrotation Yrotation Zrotation
								JOINT right_lowarm_twist
								{
									OFFSET	110.7	-3.89999	13.6
									CHANNELS 3  Xrotation Yrotation Zrotation
									JOINT right_hand
									{
										OFFSET	110.7	-3.89999	13.6
										CHANNELS 3  Xrotation Yrotation Zrotation
										JOINT right_ee
										{
											OFFSET	80.8	-5.10001	12.1
											CHANNELS 3  Xrotation Yrotation Zrotation
											End Site
											{
												OFFSET	1	0	0
											}
										}
									}
								}
							}
						}
					}
				}
			}
		}
	}
	JOINT left_hip
	{
		OFFSET	-82.8	-127.5	0.300001
		CHANNELS 3  Xrotation Yrotation Zrotation
		JOINT left_knee
		{
			OFFSET	-28.2	-396.7	2.2
			CHANNELS 3  Xrotation Yrotation Zrotation
			JOINT left_ankle
			{
				OFFSET	-11.7	-411.3	35.4
				CHANNELS 3  Xrotation Yrotation Zrotation
				JOINT left_toes
				{
					OFFSET	0	-60	-88.6
					CHANNELS 3  Xrotation Yrotation Zrotation
					JOINT left_foot_ee
					{
						OFFSET	-22.5	-16.5	-42.2
						CHANNELS 3  Xrotation Yrotation Zrotation
						End Site
						{
							OFFSET	1	0	0
						}
					}
				}
			}
		}
	}
	JOINT right_hip
	{
		OFFSET	82.8	-127.5	0.300001
		CHANNELS 3  Xrotation Yrotation Zrotation
		JOINT right_knee
		{
			OFFSET	28.2	-396.7	2.2
			CHANNELS 3  Xrotation Yrotation Zrotation
			JOINT right_ankle
			{
				OFFSET	11.7	-411.3	35.4
				CHANNELS 3  Xrotation Yrotation Zrotation
				JOINT right_toes
				{
					OFFSET	0	-60	-88.6
					CHANNELS 3  Xrotation Yrotation Zrotation
					JOINT right_foot_ee
					{
						OFFSET	22.5	-16.5	-42.2
						CHANNELS 3  Xrotation Yrotation Zrotation
						End Site
						{
							OFFSET	1	0	0
						}
					}
				}
			}
		}
	}
}
MOTION
Frames: 15
Frame Time: 0.02
2785.24154202 693.456 -1646.63244572 -5.28134066362 66.9682550155 2.89548282886 0.994149 -0.0626892 0.925885 0.994618 -0.121476 0.92002 0.992715 -0.296969 0.879209 0.991669 -0.154394 0.915072 3.19436 12.3449 1.00464 3.62964 20.664 1.89378 -0.0 0.0 -0.0 0.218381 17.6928 2.40645 4.23476 -43.8514 59.7587 1.14839 -29.6337 0.30379 3.72304 0.116217 -0.461259 -0.865299 24.2525 4.69301 -0.0 0.0 -0.0 10.6039 23.5128 -20.4693 -10.8828 12.8251 -63.4763 0.906976 24.1936 -0.194389 -20.2086 1.1319 -2.30949 1.07736 1.76536 -6.49308 0.0 0.0 0.0 14.2556 -14.7125 10.3665 -25.6417 0.186179 3.89782 42.8689 19.9534 -5.28389 -36.3835 0.0 0.0 -0.0 0.0 -0.0 12.9212 22.5426 0.664428 -53.6005 1.54999 -7.78378 37.8343 -19.8536 4.8202 0.351413 -0.0 -0.0 0.0 0.0 0.0 
2773.74891147 699.065 -1634.29682839 -3.66332913503 66.6838986268 1.45890271433 0.801515 -0.0218437 0.917359 0.80198 -0.0801709 0.91411 0.800784 -0.258247 0.880533 0.79972 -0.115948 0.910265 1.71253 11.3898 1.02282 2.03504 19.2203 2.04519 -0.0 0.0 -0.0 0.450995 16.323 2.62305 5.99186 -42.8944 59.1212 1.23844 -31.5274 0.349609 2.98332 0.0955185 -0.369036 -0.788905 24.1636 5.09208 -0.0 0.0 -0.0 10.274 23.4081 -19.7366 -13.0418 12.1895 -63.9075 0.765088 20.7568 -0.140124 -19.3921 1.07073 -2.22467 0.987957 1.58916 -5.96244 0.0 0.0 0.0 10.1739 -15.0498 10.1027 -19.8184 0.297756 3.01157 42.9166 21.0024 -5.31536 -39.7561 0.0 0.0 -0.0 0.0 -0.0 16.6407 19.951 0.418346 -51.8775 1.38959 -7.57227 32.4753 -23.122 4.34102 0.352785 -0.0 -0.0 0.0 0.0 0.0 
2765.75263635 701.15 -1623.01722078 -3.36194311055 67.6900392692 1.16043759662 0.670204 -0.010103 0.706982 0.670481 -0.0550684 0.704906 0.669863 -0.194068 0.6799 0.669228 -0.0842576 0.702016 0.401076 10.76 1.17535 0.64611 18.1785 2.32326 -0.0 0.0 -0.0 0.873319 15.2391 3.18532 8.29918 -43.2609 58.6803 1.28008 -32.3778 0.371642 2.33771 0.0764808 -0.288768 -0.811787 23.6539 4.75112 -0.0 0.0 -0.0 10.0746 23.2118 -19.307 -15.2762 11.3347 -64.0739 0.600913 16.5771 -0.0875416 -18.9594 1.03881 -2.17938 0.751302 0.694739 -4.73846 0.0 0.0 0.0 6.26183 -15.3753 11.1653 -13.3405 0.315527 2.01836 42.6576 22.7342 -5.3422 -40.0699 0.0 0.0 -0.0 0.0 -0.0 20.1022 19.8711 -0.966657 -50.7158 1.28508 -7.42702 29.3905 -24.0082 4.01368 0.773195 -0.0 -0.0 0.0 0.0 0.0 
2758.95185608 699.512 -1614.71625504 -2.16404546397 68.6039674202 -0.422873685522 0.485199 0.0015752 0.733404 0.485497 -0.0450951 0.732018 0.485003 -0.191967 0.707838 0.484312 -0.077771 0.729271 -1.34599 10.5728 2.05029 -1.17366 17.3958 3.45065 -0.0 0.0 -0.0 1.28361 14.3498 3.76683 11.2497 -44.1275 57.9713 1.35254 -33.8207 0.411217 1.7801 0.0593096 -0.219612 -0.939902 21.3887 3.05808 -0.0 0.0 -0.0 10.1273 23.7146 -19.3788 -16.9679 10.683 -63.3952 0.29965 8.44339 -0.022119 -17.7735 0.953088 -2.05403 0.562029 0.476884 -3.55899 0.0 0.0 0.0 2.67742 -15.2702 11.7322 -5.89324 0.197392 0.882501 42.6442 25.6589 -5.43787 -39.508 0.0 0.0 -0.0 0.0 -0.0 22.4648 15.5081 -0.0635433 -49.1864 1.15205 -7.23267 26.5783 -25.1127 3.70427 0.94789 -0.0 -0.0 0.0 0.0 0.0 
2732.30860364 704.546 -1611.93983045 0.709549705785 70.0656387534 -4.13479807379 0.168341 -0.156553 0.863725 0.168732 -0.211194 0.852014 0.165659 -0.3833 0.789696 0.164878 -0.253776 0.840316 -3.11641 9.86697 1.28636 -3.00189 16.9611 2.7728 -0.0 0.0 -0.0 3.06179 13.1954 6.60697 14.4658 -43.9872 56.0494 1.43902 -35.4809 0.46039 -0.440643 -0.0157339 0.0540743 -1.45225 16.2462 -2.2925 -0.0 0.0 -0.0 9.93138 23.2105 -18.9863 -21.7795 8.52677 -63.5296 0.161316 4.56899 -0.00643542 -16.3403 0.853001 -1.90024 0.37157 -3.5353 -3.93931 0.0 0.0 0.0 -2.98648 -14.0489 13.0388 3.72508 -0.171225 -0.545811 39.7684 26.9135 -5.21126 -39.8324 0.0 0.0 -0.0 0.0 -0.0 25.5043 13.0412 1.23736 -42.108 0.606297 -6.29083 21.8247 -25.8915 3.12261 -1.03375 0.0 0.0 0.0 0.0 0.0 
2733.77602631 704.546 -1601.52534999 0.758830347759 71.4094664078 -4.18699759296 0.168341 -0.156553 0.863725 0.168732 -0.211194 0.852014 0.165659 -0.3833 0.789696 0.164878 -0.253776 0.840316 -3.11641 9.86697 1.28636 -3.00189 16.9611 2.7728 -0.0 0.0 -0.0 3.06179 13.1954 6.60697 14.4658 -43.9872 56.0494 1.43902 -35.4809 0.46039 -0.440643 -0.0157339 0.0540743 -1.45225 16.2462 -2.2925 -0.0 0.0 -0.0 9.93138 23.2105 -18.9863 -21.7795 8.52677 -63.5296 0.161316 4.56899 -0.00643542 -16.3403 0.853001 -1.90024 0.37157 -3.5353 -3.93931 0.0 0.0 0.0 -2.98648 -14.0489 13.0388 3.72508 -0.171225 -0.545811 39.7684 26.9135 -5.21126 -39.8324 0.0 0.0 -0.0 0.0 -0.0 25.5043 13.0412 1.23736 -42.108 0.606297 -6.29083 21.8247 -25.8915 3.12261 -1.03375 0.0 0.0 0.0 0.0 0.0 
2719.62238259 697.471 -1599.03151949 2.08222919347 71.5442164327 -5.45870626351 0.144938 -0.11642 0.967619 0.145441 -0.177754 0.958251 0.142588 -0.372983 0.900407 0.141528 -0.226107 0.948008 -2.84326 9.60648 0.346944 -2.71432 17.1837 1.72278 -0.0 0.0 -0.0 4.01562 12.6911 8.18227 17.1942 -44.9183 55.385 1.52069 -36.9885 0.508673 -2.02494 -0.0757339 0.247474 -1.88044 16.2065 -4.94268 -0.0 0.0 -0.0 9.48985 22.4342 -18.0686 -23.5837 6.27209 -64.246 0.161967 4.58734 -0.0064873 -16.3569 0.85414 -1.90204 0.406345 -5.90828 -5.13158 0.0 0.0 0.0 -5.46244 -14.2837 13.6209 4.63786 -0.21858 -0.677807 41.8183 25.448 -5.35458 -38.3592 0.0 0.0 -0.0 0.0 -0.0 25.7226 13.0654 1.06339 -37.2153 0.299177 -5.60448 21.104 -22.4287 2.97305 -2.44977 0.0 0.0 0.0 0.0 0.0 
2702.25482193 696.035 -1603.44261669 3.03279842603 71.0917739509 -5.9067803576 -0.0971276 -0.0703693 0.767868 -0.0968074 -0.119087 0.761834 -0.0982891 -0.277798 0.719308 -0.0989753 -0.160714 0.754152 -1.44392 9.69562 -0.189412 -1.25905 17.612 0.984086 -0.0 0.0 -0.0 4.80471 12.6242 9.51003 19.5063 -44.9451 55.2716 1.57555 -37.9687 0.542056 -4.30039 -0.171227 0.52222 -2.44412 15.7135 -8.68059 -0.0 0.0 -0.0 9.18566 20.841 -17.5231 -25.6244 6.16929 -64.2793 0.182879 5.1766 -0.00826711 -16.8474 0.887972 -1.95494 0.411174 -9.15734 -6.45806 0.0 0.0 0.0 -6.61927 -14.1998 13.3521 4.94206 -0.234829 -0.72163 41.8411 25.3672 -5.35386 -37.6121 0.0 0.0 -0.0 0.0 -0.0 25.9327 14.5603 -0.142142 -32.3893 0.0548432 -4.90474 20.0649 -16.2683 2.77393 -3.61148 0.0 0.0 0.0 0.0 0.0 
2688.93905001 694.422 -1605.48557808 3.42517386371 70.6409252912 -6.12761049094 -0.217864 0.160139 0.753807 -0.217555 0.111849 0.762469 -0.215864 -0.0537983 0.768748 -0.216682 0.0682827 0.767597 -1.19608 9.65217 -0.695569 -0.989821 17.9104 0.406588 -0.0 0.0 -0.0 5.77582 12.612 11.1575 22.0291 -45.1987 55.0133 1.63755 -39.0457 0.580656 -5.92231 -0.245929 0.71567 -2.70579 15.2907 -10.5412 -0.0 0.0 -0.0 8.78362 19.0519 -16.7654 -27.3205 5.13742 -64.5603 0.182193 5.15729 -0.00820532 -16.912 0.892464 -1.96189 0.445425 -11.1388 -7.45373 0.0 0.0 0.0 -8.46748 -14.3813 12.9129 5.30691 -0.254625 -0.774079 41.503 24.8684 -5.3055 -37.167 0.0 0.0 -0.0 0.0 -0.0 27.4802 13.4042 -0.468411 -27.4482 -0.133316 -4.17002 19.5856 -12.7748 2.69208 -4.58467 0.0 0.0 0.0 0.0 0.0 
2680.72302174 696.149 -1609.93431982 0.82595962562 70.4862800375 -3.53558589633 -0.368777 0.023565 0.761346 -0.368455 -0.0249277 0.761303 -0.368624 -0.189141 0.737856 -0.369377 -0.0702402 0.758466 -0.347326 9.52932 -1.3836 -0.0938032 18.156 -0.463908 -0.0 0.0 -0.0 6.43864 12.8196 12.2825 24.676 -44.4975 55.3946 1.86241 -42.6899 0.727861 -7.46455 -0.322024 0.897615 -3.14347 15.0242 -13.4624 -0.0 0.0 -0.0 8.62595 18.1885 -16.4766 -28.3797 4.48389 -64.8552 0.247847 6.9997 -0.0151584 -16.8383 0.887341 -1.95396 0.439757 -13.589 -8.35826 0.0 0.0 0.0 -8.36551 -14.7367 12.1485 6.96201 -0.34862 -1.01041 41.2455 25.2114 -5.29309 -36.9679 0.0 0.0 -0.0 0.0 -0.0 28.3863 13.4321 -1.26329 -17.1232 -0.318793 -2.59862 16.1036 -10.1115 2.23891 -5.75725 0.0 0.0 0.0 0.0 0.0 
2673.06658003 695.958 -1609.218828 -0.226709666765 71.7056855719 -2.33438329204 -0.416513 0.0231184 0.854591 -0.416107 -0.0313063 0.854331 -0.416366 -0.2162 0.827117 -0.417311 -0.0828636 0.850879 0.201542 9.1173 -2.23866 0.4914 18.0634 -1.5095 -0.0 0.0 -0.0 7.00725 13.2477 13.235 26.4881 -43.9513 55.2924 2.04125 -45.3131 0.852129 -9.38038 -0.423345 1.12071 -3.5541 14.0007 -16.7005 -0.0 0.0 -0.0 8.49897 17.2366 -16.2587 -29.1669 4.0513 -65.4704 0.304684 8.58316 -0.0228643 -16.4548 0.860851 -1.91261 0.547558 -16.4986 -10.1217 0.0 0.0 0.0 -8.83429 -15.0364 11.1817 7.5896 -0.386046 -1.09932 41.0075 25.639 -5.2854 -37.1434 0.0 0.0 -0.0 0.0 -0.0 28.523 13.717 -1.73664 -9.09811 -0.266332 -1.36941 7.90244 -8.86107 1.13128 -7.9699 0.0 0.0 0.0 0.0 0.0 
2660.34548987 688.887 -1612.92220528 -0.590747128423 72.087273716 -1.34910265896 -0.444012 -0.000112458 0.697687 -0.443743 -0.0445068 0.696266 -0.444152 -0.19506 0.669866 -0.444767 -0.0868216 0.692264 0.679296 8.87096 -2.76073 0.999102 18.0125 -2.1719 -0.0 0.0 -0.0 7.28762 14.5294 13.6321 27.9883 -43.0531 55.095 2.31155 -48.8622 1.05019 -10.3215 -0.475846 1.22906 -3.94166 13.9849 -19.2711 -0.0 0.0 -0.0 8.0634 16.1627 -15.3702 -29.9162 3.37469 -66.0759 0.32801 9.22933 -0.0264756 -16.2444 0.846438 -1.88986 0.497012 -19.2942 -10.8211 0.0 0.0 0.0 -9.44882 -15.334 10.3288 6.0727 -0.297264 -0.883757 42.2332 23.0609 -5.31425 -36.4025 0.0 0.0 -0.0 0.0 -0.0 28.7651 13.9407 -2.29496 -2.33113 -0.0889384 -0.346671 3.1598 -6.97369 0.458826 -8.69572 0.0 0.0 0.0 0.0 0.0 
2635.22415978 685.858 -1616.26468038 -0.745517002097 73.9822502858 -1.64579000728 -0.637719 -0.0861483 0.897769 -0.637282 -0.143099 0.890469 -0.63932 -0.336445 0.836793 -0.640242 -0.200072 0.879423 1.33466 8.17947 -2.68359 1.63102 16.6738 -2.23646 -0.0 0.0 -0.0 7.07812 17.1472 13.1014 31.1541 -41.193 58.031 2.87208 -54.8874 1.49175 -12.3754 -0.596567 1.46245 -4.72609 12.873 -25.3516 -0.0 0.0 -0.0 7.68788 14.5776 -14.6438 -30.6531 3.31706 -67.7588 0.367441 10.3162 -0.0331691 -15.7295 0.811521 -1.83395 0.630468 -23.3594 -13.0301 0.0 0.0 0.0 -10.787 -14.8091 9.48138 4.53917 -0.213358 -0.663571 42.5025 21.6636 -5.29733 -34.907 0.0 0.0 -0.0 0.0 -0.0 29.5716 14.4743 -2.41019 5.8589 0.285212 0.853193 -11.0033 -4.17609 -1.64768 -11.5033 0.0 0.0 0.0 0.0 0.0 
2565.71726417 666.747 -1631.35264412 -1.61831602009 73.2484517149 -1.99827901413 -0.325248 -0.313835 1.09588 -0.324661 -0.382928 1.07369 -0.331764 -0.605717 0.965696 -0.332788 -0.445611 1.04923 0.935711 9.06981 -2.17401 1.24337 17.8612 -1.54876 -0.0 0.0 -0.0 6.6292 19.2088 12.2444 33.842 -34.9559 62.6077 3.35491 -58.9504 1.89657 -13.3245 -0.655176 1.56883 -5.58247 13.3083 -31.2673 -0.0 0.0 -0.0 7.67735 11.8431 -14.7541 -31.0825 2.80591 -66.9771 0.376953 10.5773 -0.0348938 -14.9099 0.756989 -1.74433 0.759426 -28.6655 -15.4601 0.0 0.0 0.0 -14.153 -12.7091 11.4922 1.95813 -0.0855735 -0.288272 43.6803 21.5586 -5.39671 -30.4205 0.0 0.0 -0.0 0.0 -0.0 32.0124 16.1315 -1.37592 1.92584 0.0840825 0.283542 -18.4793 -0.392543 -2.80593 -9.35629 0.0 0.0 0.0 0.0 0.0 
2522.58500889 661.679 -1645.03160751 -4.41559337665 73.6074714801 0.192299609997 -0.156201 -0.0392317 1.05323 -0.15559 -0.106168 1.0486 -0.157298 -0.326979 1.00196 -0.158661 -0.164643 1.04103 3.69501 8.40049 -1.45277 3.99564 15.8156 -1.13996 -0.0 0.0 -0.0 6.04844 18.8691 11.366 33.328 -32.7778 64.6464 3.45013 -59.6535 1.97845 -14.3499 -0.720466 1.68265 -6.32639 13.3512 -37.0265 -0.0 0.0 -0.0 8.05512 8.05578 -15.6814 -30.7381 4.30923 -66.3293 0.384608 10.7871 -0.0363127 -13.5112 0.666908 -1.58963 0.699695 -29.2643 -15.3045 0.0 0.0 0.0 -15.6019 -13.9119 11.5248 0.00625908 -0.000257732 -0.000925934 43.1704 24.305 -5.43785 -26.5874 0.0 0.0 -0.0 0.0 -0.0 31.9334 16.9226 -1.54794 0.560996 0.0235068 0.0828789 -22.7688 0.737843 -3.47138 -6.7719 0.0 0.0 0.0 0.0 0.0 
